<svg xmlns="http://www.w3.org/2000/svg" xmlns:xlink="http://www.w3.org/1999/xlink" width="1200" zoomAndPan="magnify" viewBox="0 0 900 187.499995" height="250" preserveAspectRatio="xMidYMid meet" version="1.0"><defs><g/><clipPath id="42438b7b2d"><path d="M 52 54 L 73 54 L 73 75 L 52 75 Z M 52 54 " clip-rule="nonzero"/></clipPath><clipPath id="6e7d31109e"><path d="M 61.300781 46.773438 L 88.148438 73.621094 L 73.234375 88.539062 L 46.382812 61.6875 Z M 61.300781 46.773438 " clip-rule="nonzero"/></clipPath><clipPath id="9a97715433"><path d="M 106.933594 1.140625 L 215.820312 110.027344 L 133.78125 192.066406 L 24.894531 83.179688 Z M 106.933594 1.140625 " clip-rule="nonzero"/></clipPath><clipPath id="30f494dcc5"><path d="M 109 30.65625 L 117 30.65625 L 117 57 L 109 57 Z M 109 30.65625 " clip-rule="nonzero"/></clipPath><clipPath id="4d97bdf4e1"><path d="M 29.664062 107 L 56 107 L 56 116 L 29.664062 116 Z M 29.664062 107 " clip-rule="nonzero"/></clipPath><clipPath id="6f688b55d8"><path d="M 141.800781 30.65625 L 190.316406 30.65625 L 190.316406 79 L 141.800781 79 Z M 141.800781 30.65625 " clip-rule="nonzero"/></clipPath></defs><g fill="#2b2b2b" fill-opacity="1"><g transform="translate(227.690894, 141.345932)"><g><path d="M 7.25 0 L 7.25 -11.84375 L 26.078125 -11.84375 L 26.078125 -85.75 L 7.25 -85.75 L 7.25 -97.59375 L 58.140625 -97.59375 L 58.140625 -85.75 L 39.453125 -85.75 L 39.453125 -11.84375 L 58.140625 -11.84375 L 58.140625 0 Z M 7.25 0 "/></g></g></g><g fill="#2b2b2b" fill-opacity="1"><g transform="translate(288.199324, 141.345932)"><g><path d="M 10.171875 0 L 10.171875 -41.125 C 10.171875 -47.445312 11.585938 -52.976562 14.421875 -57.71875 C 17.265625 -62.457031 21.191406 -66.148438 26.203125 -68.796875 C 31.222656 -71.453125 36.941406 -72.78125 43.359375 -72.78125 C 49.867188 -72.78125 55.609375 -71.453125 60.578125 -68.796875 C 65.546875 -66.148438 69.445312 -62.457031 72.28125 -57.71875 C 75.125 -52.976562 76.546875 -47.445312 76.546875 -41.125 L 76.546875 0 L 63.71875 0 L 63.71875 -40.984375 C 63.71875 -45.265625 62.765625 -48.960938 60.859375 -52.078125 C 58.953125 -55.191406 56.441406 -57.582031 53.328125 -59.25 C 50.210938 -60.925781 46.890625 -61.765625 43.359375 -61.765625 C 39.828125 -61.765625 36.503906 -60.925781 33.390625 -59.25 C 30.273438 -57.582031 27.765625 -55.191406 25.859375 -52.078125 C 23.953125 -48.960938 23 -45.265625 23 -40.984375 L 23 0 Z M 10.171875 0 "/></g></g></g><g fill="#2b2b2b" fill-opacity="1"><g transform="translate(370.039201, 141.345932)"><g><path d="M 58.703125 0 C 53.398438 0 48.816406 -1.132812 44.953125 -3.40625 C 41.097656 -5.6875 38.125 -8.800781 36.03125 -12.75 C 33.945312 -16.707031 32.90625 -21.148438 32.90625 -26.078125 L 32.90625 -85.75 L 3.203125 -85.75 L 3.203125 -97.59375 L 75.984375 -97.59375 L 75.984375 -85.75 L 46.28125 -85.75 L 46.28125 -24.40625 C 46.28125 -20.78125 47.421875 -17.78125 49.703125 -15.40625 C 51.984375 -13.03125 55.03125 -11.84375 58.84375 -11.84375 L 65.25 -11.84375 L 65.25 0 Z M 58.703125 0 "/></g></g></g><g fill="#2b2b2b" fill-opacity="1"><g transform="translate(444.350332, 141.345932)"><g><path d="M 43.5 1.671875 C 37.082031 1.671875 31.34375 0.347656 26.28125 -2.296875 C 21.21875 -4.953125 17.265625 -8.648438 14.421875 -13.390625 C 11.585938 -18.128906 10.171875 -23.65625 10.171875 -29.96875 L 10.171875 -71.109375 L 23.140625 -71.109375 L 23.140625 -30.109375 C 23.140625 -25.835938 24.066406 -22.144531 25.921875 -19.03125 C 27.785156 -15.914062 30.273438 -13.519531 33.390625 -11.84375 C 36.503906 -10.175781 39.828125 -9.34375 43.359375 -9.34375 C 46.984375 -9.34375 50.351562 -10.175781 53.46875 -11.84375 C 56.582031 -13.519531 59.09375 -15.914062 61 -19.03125 C 62.90625 -22.144531 63.859375 -25.835938 63.859375 -30.109375 L 63.859375 -71.109375 L 76.828125 -71.109375 L 76.828125 -29.96875 C 76.828125 -23.65625 75.382812 -18.128906 72.5 -13.390625 C 69.613281 -8.648438 65.660156 -4.953125 60.640625 -2.296875 C 55.628906 0.347656 49.914062 1.671875 43.5 1.671875 Z M 43.5 1.671875 "/></g></g></g><g fill="#2b2b2b" fill-opacity="1"><g transform="translate(526.469053, 141.345932)"><g><path d="M 10.171875 0 L 10.171875 -41.125 C 10.171875 -47.445312 11.585938 -52.976562 14.421875 -57.71875 C 17.265625 -62.457031 21.191406 -66.148438 26.203125 -68.796875 C 31.222656 -71.453125 36.941406 -72.78125 43.359375 -72.78125 C 49.867188 -72.78125 55.609375 -71.453125 60.578125 -68.796875 C 65.546875 -66.148438 69.445312 -62.457031 72.28125 -57.71875 C 75.125 -52.976562 76.546875 -47.445312 76.546875 -41.125 L 76.546875 0 L 63.71875 0 L 63.71875 -40.984375 C 63.71875 -45.265625 62.765625 -48.960938 60.859375 -52.078125 C 58.953125 -55.191406 56.441406 -57.582031 53.328125 -59.25 C 50.210938 -60.925781 46.890625 -61.765625 43.359375 -61.765625 C 39.828125 -61.765625 36.503906 -60.925781 33.390625 -59.25 C 30.273438 -57.582031 27.765625 -55.191406 25.859375 -52.078125 C 23.953125 -48.960938 23 -45.265625 23 -40.984375 L 23 0 Z M 10.171875 0 "/></g></g></g><g fill="#2b2b2b" fill-opacity="1"><g transform="translate(608.308945, 141.345932)"><g><path d="M 46.28125 0 C 38.476562 0 31.554688 -1.460938 25.515625 -4.390625 C 19.472656 -7.316406 14.753906 -11.453125 11.359375 -16.796875 C 7.972656 -22.140625 6.28125 -28.390625 6.28125 -35.546875 C 6.28125 -42.617188 7.71875 -48.960938 10.59375 -54.578125 C 13.476562 -60.203125 17.472656 -64.640625 22.578125 -67.890625 C 27.691406 -71.148438 33.644531 -72.78125 40.4375 -72.78125 C 47.78125 -72.78125 53.890625 -71.195312 58.765625 -68.03125 C 63.648438 -64.875 67.300781 -60.625 69.71875 -55.28125 C 72.132812 -49.9375 73.34375 -43.960938 73.34375 -37.359375 C 73.34375 -36.335938 73.316406 -35.269531 73.265625 -34.15625 C 73.222656 -33.039062 73.109375 -32.066406 72.921875 -31.234375 L 19.9375 -31.234375 C 20.40625 -26.859375 21.847656 -23.160156 24.265625 -20.140625 C 26.679688 -17.117188 29.769531 -14.84375 33.53125 -13.3125 C 37.289062 -11.78125 41.453125 -11.015625 46.015625 -11.015625 L 64.546875 -11.015625 L 64.546875 0 Z M 19.796875 -40.296875 L 60.375 -40.296875 C 60.375 -42.054688 60.1875 -43.9375 59.8125 -45.9375 C 59.4375 -47.9375 58.785156 -49.890625 57.859375 -51.796875 C 56.929688 -53.703125 55.695312 -55.421875 54.15625 -56.953125 C 52.625 -58.484375 50.71875 -59.710938 48.4375 -60.640625 C 46.164062 -61.578125 43.5 -62.046875 40.4375 -62.046875 C 37.175781 -62.046875 34.3125 -61.414062 31.84375 -60.15625 C 29.382812 -58.90625 27.269531 -57.234375 25.5 -55.140625 C 23.738281 -53.046875 22.394531 -50.695312 21.46875 -48.09375 C 20.539062 -45.5 19.984375 -42.898438 19.796875 -40.296875 Z M 19.796875 -40.296875 "/></g></g></g><g fill="#2b2b2b" fill-opacity="1"><g transform="translate(682.898904, 141.345932)"><g/></g></g><g fill="#0096a9" fill-opacity="1"><g transform="translate(714.968452, 141.345932)"><g><path d="M 0.28125 0 L 33.46875 -88.25 C 34.945312 -92.0625 36.988281 -94.847656 39.59375 -96.609375 C 42.195312 -98.378906 45.21875 -99.265625 48.65625 -99.265625 C 52.09375 -99.265625 55.132812 -98.40625 57.78125 -96.6875 C 60.4375 -94.96875 62.460938 -92.203125 63.859375 -88.390625 L 97.171875 0 L 82.53125 0 L 74.03125 -23.5625 L 23 -23.5625 L 14.359375 0 Z M 27.1875 -35.40625 L 69.984375 -35.40625 L 52.5625 -83.796875 C 52.09375 -85.003906 51.578125 -85.929688 51.015625 -86.578125 C 50.460938 -87.234375 49.675781 -87.5625 48.65625 -87.5625 C 47.726562 -87.5625 46.984375 -87.234375 46.421875 -86.578125 C 45.867188 -85.929688 45.40625 -85.003906 45.03125 -83.796875 Z M 27.1875 -35.40625 "/></g></g></g><g fill="#0096a9" fill-opacity="1"><g transform="translate(807.543763, 141.345932)"><g><path d="M 7.25 0 L 7.25 -11.84375 L 26.078125 -11.84375 L 26.078125 -85.75 L 7.25 -85.75 L 7.25 -97.59375 L 58.140625 -97.59375 L 58.140625 -85.75 L 39.453125 -85.75 L 39.453125 -11.84375 L 58.140625 -11.84375 L 58.140625 0 Z M 7.25 0 "/></g></g></g><path fill="#2b2b2b" d="M 190.171875 107.878906 L 171.722656 107.878906 C 171.234375 107.878906 170.761719 107.972656 170.308594 108.160156 C 169.859375 108.347656 169.457031 108.617188 169.113281 108.960938 C 168.765625 109.308594 168.5 109.707031 168.3125 110.160156 C 168.125 110.613281 168.03125 111.085938 168.03125 111.574219 C 168.03125 112.066406 168.125 112.535156 168.3125 112.988281 C 168.5 113.441406 168.765625 113.839844 169.113281 114.1875 C 169.457031 114.535156 169.859375 114.800781 170.308594 114.988281 C 170.761719 115.175781 171.234375 115.269531 171.722656 115.269531 L 190.171875 115.269531 C 190.664062 115.269531 191.132812 115.175781 191.585938 114.988281 C 192.039062 114.800781 192.4375 114.535156 192.785156 114.1875 C 193.132812 113.839844 193.398438 113.441406 193.585938 112.988281 C 193.773438 112.535156 193.867188 112.066406 193.867188 111.574219 C 193.867188 111.085938 193.773438 110.613281 193.585938 110.160156 C 193.398438 109.707031 193.132812 109.308594 192.785156 108.960938 C 192.4375 108.617188 192.039062 108.347656 191.585938 108.160156 C 191.132812 107.972656 190.664062 107.878906 190.171875 107.878906 Z M 190.171875 107.878906 " fill-opacity="1" fill-rule="nonzero"/><path fill="#2b2b2b" d="M 121.101562 109.230469 C 120.878906 109.476562 120.632812 109.695312 120.367188 109.890625 C 120.097656 110.085938 119.8125 110.25 119.511719 110.386719 C 119.210938 110.523438 118.898438 110.628906 118.574219 110.703125 C 118.253906 110.777344 117.925781 110.816406 117.59375 110.824219 C 117.265625 110.832031 116.9375 110.808594 116.609375 110.746094 C 116.285156 110.6875 115.96875 110.597656 115.660156 110.472656 C 115.355469 110.351562 115.0625 110.195312 114.785156 110.015625 C 114.511719 109.832031 114.257812 109.625 114.023438 109.390625 C 113.789062 109.15625 113.582031 108.898438 113.398438 108.621094 C 113.21875 108.347656 113.066406 108.054688 112.941406 107.746094 C 112.820312 107.441406 112.730469 107.125 112.671875 106.796875 C 112.613281 106.472656 112.585938 106.144531 112.59375 105.8125 C 112.601562 105.480469 112.644531 105.15625 112.71875 104.832031 C 112.792969 104.511719 112.898438 104.199219 113.035156 103.898438 C 113.175781 103.597656 113.339844 103.3125 113.535156 103.042969 C 113.730469 102.777344 113.953125 102.53125 114.195312 102.308594 L 142.789062 73.714844 C 142.007812 73.078125 141.207031 72.46875 140.386719 71.882812 C 139.566406 71.296875 138.726562 70.738281 137.871094 70.207031 C 137.015625 69.675781 136.140625 69.167969 135.253906 68.691406 C 134.367188 68.214844 133.464844 67.765625 132.546875 67.347656 C 131.632812 66.925781 130.703125 66.535156 129.761719 66.175781 C 128.820312 65.8125 127.867188 65.484375 126.90625 65.183594 C 125.945312 64.882812 124.972656 64.609375 123.992188 64.371094 C 123.015625 64.132812 122.027344 63.925781 121.035156 63.746094 C 120.042969 63.570312 119.046875 63.425781 118.042969 63.3125 C 117.042969 63.199219 116.039062 63.117188 115.03125 63.066406 C 114.023438 63.015625 113.015625 62.996094 112.007812 63.011719 C 111 63.023438 109.996094 63.070312 108.988281 63.148438 C 107.984375 63.222656 106.984375 63.332031 105.984375 63.472656 C 104.984375 63.613281 103.992188 63.789062 103.007812 63.992188 C 102.019531 64.195312 101.039062 64.429688 100.066406 64.695312 C 99.09375 64.960938 98.128906 65.257812 97.175781 65.582031 C 96.222656 65.910156 95.28125 66.265625 94.347656 66.652344 C 93.417969 67.039062 92.5 67.457031 91.59375 67.898438 C 90.691406 68.34375 89.800781 68.816406 88.925781 69.320312 C 88.050781 69.820312 87.191406 70.347656 86.351562 70.902344 C 85.511719 71.457031 84.6875 72.039062 83.882812 72.648438 C 83.078125 73.253906 82.292969 73.886719 81.527344 74.542969 C 80.765625 75.199219 80.019531 75.882812 79.300781 76.585938 C 78.578125 77.289062 77.878906 78.015625 77.203125 78.765625 C 76.527344 79.511719 75.878906 80.28125 75.25 81.070312 C 74.625 81.863281 74.023438 82.671875 73.449219 83.5 C 72.871094 84.324219 72.324219 85.171875 71.800781 86.035156 C 71.28125 86.894531 70.785156 87.773438 70.320312 88.667969 C 69.851562 89.5625 69.414062 90.46875 69.007812 91.390625 C 68.597656 92.3125 68.21875 93.246094 67.867188 94.191406 C 67.519531 95.136719 67.199219 96.09375 66.910156 97.058594 C 66.621094 98.023438 66.363281 99 66.136719 99.980469 C 65.90625 100.960938 65.710938 101.949219 65.546875 102.945312 C 65.382812 103.941406 65.25 104.9375 65.144531 105.941406 C 65.042969 106.945312 64.976562 107.949219 64.9375 108.957031 C 64.898438 109.964844 64.894531 110.972656 64.917969 111.980469 C 64.945312 112.988281 65.003906 113.992188 65.089844 114.996094 C 65.179688 116.003906 65.300781 117.003906 65.457031 118 C 65.609375 118.996094 65.792969 119.984375 66.007812 120.972656 C 66.222656 121.957031 66.46875 122.933594 66.746094 123.902344 C 67.023438 124.871094 67.332031 125.832031 67.671875 126.78125 C 68.011719 127.730469 68.378906 128.667969 68.777344 129.59375 C 69.171875 130.519531 69.601562 131.433594 70.054688 132.332031 C 70.511719 133.230469 70.996094 134.117188 71.503906 134.984375 C 72.015625 135.855469 72.554688 136.707031 73.121094 137.539062 C 73.6875 138.375 74.277344 139.191406 74.894531 139.988281 C 75.511719 140.785156 76.152344 141.5625 76.820312 142.320312 C 77.488281 143.074219 78.175781 143.808594 78.890625 144.523438 C 79.601562 145.234375 80.335938 145.925781 81.09375 146.589844 C 81.851562 147.257812 82.625 147.898438 83.421875 148.515625 C 84.222656 149.132812 85.035156 149.726562 85.871094 150.289062 C 86.707031 150.855469 87.558594 151.394531 88.425781 151.90625 C 89.296875 152.417969 90.179688 152.902344 91.078125 153.355469 C 91.976562 153.8125 92.890625 154.238281 93.816406 154.636719 C 94.742188 155.035156 95.683594 155.402344 96.632812 155.742188 C 97.582031 156.078125 98.539062 156.386719 99.511719 156.664062 C 100.480469 156.941406 101.457031 157.1875 102.441406 157.402344 C 103.425781 157.621094 104.417969 157.804688 105.414062 157.957031 C 106.410156 158.109375 107.410156 158.230469 108.414062 158.320312 C 109.417969 158.410156 110.425781 158.46875 111.433594 158.492188 C 112.441406 158.519531 113.445312 158.511719 114.453125 158.476562 C 115.460938 158.4375 116.46875 158.367188 117.46875 158.265625 C 118.472656 158.164062 119.472656 158.03125 120.464844 157.867188 C 121.460938 157.699219 122.449219 157.503906 123.429688 157.277344 C 124.414062 157.050781 125.386719 156.789062 126.351562 156.5 C 127.320312 156.210938 128.273438 155.894531 129.21875 155.542969 C 130.164062 155.195312 131.097656 154.8125 132.019531 154.40625 C 132.941406 153.996094 133.851562 153.558594 134.742188 153.09375 C 135.636719 152.625 136.515625 152.132812 137.378906 151.609375 C 138.242188 151.085938 139.085938 150.539062 139.914062 149.964844 C 140.742188 149.386719 141.550781 148.785156 142.339844 148.160156 C 143.128906 147.535156 143.898438 146.882812 144.648438 146.207031 C 145.394531 145.53125 146.121094 144.832031 146.824219 144.113281 C 147.53125 143.390625 148.210938 142.648438 148.867188 141.882812 C 149.523438 141.117188 150.15625 140.332031 150.765625 139.527344 C 151.371094 138.722656 151.953125 137.902344 152.507812 137.058594 C 153.0625 136.21875 153.59375 135.359375 154.09375 134.484375 C 154.59375 133.609375 155.066406 132.722656 155.511719 131.816406 C 155.957031 130.910156 156.371094 129.992188 156.757812 129.0625 C 157.144531 128.132812 157.5 127.1875 157.828125 126.234375 C 158.15625 125.28125 158.449219 124.316406 158.714844 123.34375 C 158.984375 122.375 159.21875 121.394531 159.421875 120.40625 C 159.625 119.417969 159.796875 118.425781 159.9375 117.425781 C 160.078125 116.429688 160.1875 115.425781 160.265625 114.421875 C 160.34375 113.417969 160.386719 112.410156 160.402344 111.402344 C 160.414062 110.394531 160.398438 109.386719 160.347656 108.378906 C 160.296875 107.375 160.214844 106.367188 160.101562 105.367188 C 159.988281 104.367188 159.839844 103.367188 159.664062 102.375 C 159.488281 101.382812 159.28125 100.398438 159.039062 99.417969 C 158.800781 98.4375 158.53125 97.46875 158.230469 96.507812 C 157.929688 95.542969 157.597656 94.59375 157.238281 93.652344 C 156.875 92.710938 156.484375 91.78125 156.066406 90.863281 C 155.644531 89.949219 155.195312 89.046875 154.71875 88.15625 C 154.242188 87.269531 153.738281 86.398438 153.203125 85.542969 C 152.671875 84.683594 152.113281 83.847656 151.527344 83.027344 C 150.941406 82.207031 150.332031 81.402344 149.695312 80.621094 Z M 121.101562 109.230469 " fill-opacity="1" fill-rule="nonzero"/><g clip-path="url(#42438b7b2d)"><g clip-path="url(#6e7d31109e)"><g clip-path="url(#9a97715433)"><path fill="#2b2b2b" d="M 71.417969 68.257812 L 58.371094 55.210938 C 58.027344 54.867188 57.625 54.597656 57.171875 54.410156 C 56.722656 54.222656 56.25 54.128906 55.757812 54.128906 C 55.269531 54.128906 54.796875 54.222656 54.34375 54.410156 C 53.894531 54.597656 53.492188 54.867188 53.148438 55.210938 C 52.800781 55.558594 52.535156 55.957031 52.347656 56.410156 C 52.160156 56.863281 52.066406 57.335938 52.066406 57.824219 C 52.066406 58.316406 52.160156 58.785156 52.347656 59.238281 C 52.535156 59.691406 52.800781 60.089844 53.148438 60.4375 L 66.191406 73.480469 C 66.539062 73.828125 66.9375 74.09375 67.390625 74.28125 C 67.84375 74.46875 68.3125 74.5625 68.804688 74.5625 C 69.292969 74.5625 69.765625 74.46875 70.21875 74.28125 C 70.671875 74.09375 71.070312 73.828125 71.417969 73.480469 C 71.761719 73.136719 72.03125 72.734375 72.21875 72.285156 C 72.40625 71.832031 72.5 71.359375 72.5 70.871094 C 72.5 70.378906 72.40625 69.910156 72.21875 69.457031 C 72.03125 69.003906 71.761719 68.605469 71.417969 68.257812 Z M 71.417969 68.257812 " fill-opacity="1" fill-rule="nonzero"/></g></g></g><g clip-path="url(#30f494dcc5)"><path fill="#2b2b2b" d="M 116.664062 53.003906 L 116.664062 34.554688 C 116.664062 34.066406 116.570312 33.59375 116.382812 33.140625 C 116.195312 32.6875 115.929688 32.289062 115.582031 31.941406 C 115.234375 31.597656 114.835938 31.328125 114.382812 31.140625 C 113.929688 30.953125 113.460938 30.859375 112.96875 30.859375 C 112.480469 30.859375 112.007812 30.953125 111.554688 31.140625 C 111.101562 31.328125 110.703125 31.597656 110.359375 31.941406 C 110.011719 32.289062 109.742188 32.6875 109.554688 33.140625 C 109.367188 33.59375 109.273438 34.066406 109.273438 34.554688 L 109.273438 53.003906 C 109.273438 53.492188 109.367188 53.964844 109.554688 54.417969 C 109.742188 54.871094 110.011719 55.269531 110.359375 55.617188 C 110.703125 55.960938 111.101562 56.230469 111.554688 56.417969 C 112.007812 56.605469 112.480469 56.699219 112.96875 56.699219 C 113.460938 56.699219 113.929688 56.605469 114.382812 56.417969 C 114.835938 56.230469 115.234375 55.960938 115.582031 55.617188 C 115.929688 55.269531 116.195312 54.871094 116.382812 54.417969 C 116.570312 53.964844 116.664062 53.492188 116.664062 53.003906 Z M 116.664062 53.003906 " fill-opacity="1" fill-rule="nonzero"/></g><g clip-path="url(#4d97bdf4e1)"><path fill="#2b2b2b" d="M 52.007812 107.878906 L 33.558594 107.878906 C 33.070312 107.878906 32.597656 107.972656 32.148438 108.160156 C 31.695312 108.347656 31.292969 108.617188 30.949219 108.960938 C 30.601562 109.308594 30.335938 109.707031 30.148438 110.160156 C 29.960938 110.613281 29.867188 111.085938 29.867188 111.574219 C 29.867188 112.066406 29.960938 112.535156 30.148438 112.988281 C 30.335938 113.441406 30.601562 113.839844 30.949219 114.1875 C 31.292969 114.535156 31.695312 114.800781 32.148438 114.988281 C 32.597656 115.175781 33.070312 115.269531 33.558594 115.269531 L 52.007812 115.269531 C 52.5 115.269531 52.96875 115.175781 53.421875 114.988281 C 53.875 114.800781 54.273438 114.535156 54.621094 114.1875 C 54.96875 113.839844 55.234375 113.441406 55.421875 112.988281 C 55.609375 112.535156 55.703125 112.066406 55.703125 111.574219 C 55.703125 111.085938 55.609375 110.613281 55.421875 110.160156 C 55.234375 109.707031 54.96875 109.308594 54.621094 108.960938 C 54.273438 108.617188 53.875 108.347656 53.421875 108.160156 C 52.96875 107.972656 52.5 107.878906 52.007812 107.878906 Z M 52.007812 107.878906 " fill-opacity="1" fill-rule="nonzero"/></g><g clip-path="url(#6f688b55d8)"><path fill="#0096a9" d="M 190.015625 54.765625 C 171.933594 58.09375 169.234375 60.792969 165.90625 78.875 C 162.578125 60.792969 159.878906 58.09375 141.800781 54.765625 C 159.878906 51.4375 162.578125 48.738281 165.90625 30.65625 C 169.234375 48.738281 171.933594 51.4375 190.015625 54.765625 Z M 190.015625 54.765625 " fill-opacity="1" fill-rule="nonzero"/></g></svg>