<svg xmlns="http://www.w3.org/2000/svg" xmlns:xlink="http://www.w3.org/1999/xlink" width="500" zoomAndPan="magnify" viewBox="0 0 375 374.999991" height="500" preserveAspectRatio="xMidYMid meet" version="1.0"><defs><g/><clipPath id="969588b927"><path d="M 303.1875 174 L 359 174 L 359 190 L 303.1875 190 Z M 303.1875 174 " clip-rule="nonzero"/></clipPath><clipPath id="f0a03d7d09"><path d="M 55 59 L 100 59 L 100 103 L 55 103 Z M 55 59 " clip-rule="nonzero"/></clipPath><clipPath id="e39f753cfe"><path d="M 75.050781 43.269531 L 132.550781 100.769531 L 100.605469 132.710938 L 43.105469 75.210938 Z M 75.050781 43.269531 " clip-rule="nonzero"/></clipPath><clipPath id="12c78c66a8"><path d="M 172.777344 -54.460938 L 405.972656 178.734375 L 230.277344 354.425781 L -2.914062 121.234375 Z M 172.777344 -54.460938 " clip-rule="nonzero"/></clipPath><clipPath id="9874cc0499"><path d="M 7.296875 174 L 64 174 L 64 190 L 7.296875 190 Z M 7.296875 174 " clip-rule="nonzero"/></clipPath><clipPath id="1622b0d5e9"><path d="M 247.445312 8.753906 L 351 8.753906 L 351 112.660156 L 247.445312 112.660156 Z M 247.445312 8.753906 " clip-rule="nonzero"/></clipPath></defs><g fill="#2b2b2b" fill-opacity="1"><g transform="translate(6.613175, 354.984033)"><g><path d="M 4.0625 0 L 4.0625 -6.640625 L 14.625 -6.640625 L 14.625 -48.078125 L 4.0625 -48.078125 L 4.0625 -54.71875 L 32.59375 -54.71875 L 32.59375 -48.078125 L 22.125 -48.078125 L 22.125 -6.640625 L 32.59375 -6.640625 L 32.59375 0 Z M 4.0625 0 "/></g></g></g><g fill="#2b2b2b" fill-opacity="1"><g transform="translate(40.53776, 354.984033)"><g><path d="M 5.703125 0 L 5.703125 -23.0625 C 5.703125 -26.601562 6.492188 -29.703125 8.078125 -32.359375 C 9.671875 -35.015625 11.875 -37.085938 14.6875 -38.578125 C 17.507812 -40.066406 20.71875 -40.8125 24.3125 -40.8125 C 27.957031 -40.8125 31.171875 -40.066406 33.953125 -38.578125 C 36.742188 -37.085938 38.9375 -35.015625 40.53125 -32.359375 C 42.125 -29.703125 42.921875 -26.601562 42.921875 -23.0625 L 42.921875 0 L 35.71875 0 L 35.71875 -22.984375 C 35.71875 -25.378906 35.179688 -27.445312 34.109375 -29.1875 C 33.046875 -30.9375 31.640625 -32.28125 29.890625 -33.21875 C 28.148438 -34.15625 26.289062 -34.625 24.3125 -34.625 C 22.332031 -34.625 20.46875 -34.15625 18.71875 -33.21875 C 16.976562 -32.28125 15.570312 -30.9375 14.5 -29.1875 C 13.425781 -27.445312 12.890625 -25.378906 12.890625 -22.984375 L 12.890625 0 Z M 5.703125 0 "/></g></g></g><g fill="#2b2b2b" fill-opacity="1"><g transform="translate(86.422009, 354.984033)"><g><path d="M 32.90625 0 C 29.9375 0 27.367188 -0.632812 25.203125 -1.90625 C 23.046875 -3.1875 21.378906 -4.929688 20.203125 -7.140625 C 19.035156 -9.359375 18.453125 -11.851562 18.453125 -14.625 L 18.453125 -48.078125 L 1.796875 -48.078125 L 1.796875 -54.71875 L 42.609375 -54.71875 L 42.609375 -48.078125 L 25.953125 -48.078125 L 25.953125 -13.6875 C 25.953125 -11.644531 26.585938 -9.957031 27.859375 -8.625 C 29.140625 -7.300781 30.847656 -6.640625 32.984375 -6.640625 L 36.578125 -6.640625 L 36.578125 0 Z M 32.90625 0 "/></g></g></g><g fill="#2b2b2b" fill-opacity="1"><g transform="translate(128.085201, 354.984033)"><g><path d="M 24.390625 0.9375 C 20.796875 0.9375 17.578125 0.195312 14.734375 -1.28125 C 11.890625 -2.769531 9.671875 -4.84375 8.078125 -7.5 C 6.492188 -10.15625 5.703125 -13.257812 5.703125 -16.8125 L 5.703125 -39.875 L 12.96875 -39.875 L 12.96875 -16.890625 C 12.96875 -14.492188 13.488281 -12.421875 14.53125 -10.671875 C 15.582031 -8.921875 16.976562 -7.578125 18.71875 -6.640625 C 20.46875 -5.703125 22.332031 -5.234375 24.3125 -5.234375 C 26.34375 -5.234375 28.226562 -5.703125 29.96875 -6.640625 C 31.71875 -7.578125 33.125 -8.921875 34.1875 -10.671875 C 35.257812 -12.421875 35.796875 -14.492188 35.796875 -16.890625 L 35.796875 -39.875 L 43.078125 -39.875 L 43.078125 -16.8125 C 43.078125 -13.257812 42.265625 -10.15625 40.640625 -7.5 C 39.023438 -4.84375 36.8125 -2.769531 34 -1.28125 C 31.1875 0.195312 27.984375 0.9375 24.390625 0.9375 Z M 24.390625 0.9375 "/></g></g></g><g fill="#2b2b2b" fill-opacity="1"><g transform="translate(174.125787, 354.984033)"><g><path d="M 5.703125 0 L 5.703125 -23.0625 C 5.703125 -26.601562 6.492188 -29.703125 8.078125 -32.359375 C 9.671875 -35.015625 11.875 -37.085938 14.6875 -38.578125 C 17.507812 -40.066406 20.71875 -40.8125 24.3125 -40.8125 C 27.957031 -40.8125 31.171875 -40.066406 33.953125 -38.578125 C 36.742188 -37.085938 38.9375 -35.015625 40.53125 -32.359375 C 42.125 -29.703125 42.921875 -26.601562 42.921875 -23.0625 L 42.921875 0 L 35.71875 0 L 35.71875 -22.984375 C 35.71875 -25.378906 35.179688 -27.445312 34.109375 -29.1875 C 33.046875 -30.9375 31.640625 -32.28125 29.890625 -33.21875 C 28.148438 -34.15625 26.289062 -34.625 24.3125 -34.625 C 22.332031 -34.625 20.46875 -34.15625 18.71875 -33.21875 C 16.976562 -32.28125 15.570312 -30.9375 14.5 -29.1875 C 13.425781 -27.445312 12.890625 -25.378906 12.890625 -22.984375 L 12.890625 0 Z M 5.703125 0 "/></g></g></g><g fill="#2b2b2b" fill-opacity="1"><g transform="translate(220.010045, 354.984033)"><g><path d="M 25.953125 0 C 21.578125 0 17.691406 -0.816406 14.296875 -2.453125 C 10.910156 -4.097656 8.265625 -6.421875 6.359375 -9.421875 C 4.460938 -12.421875 3.515625 -15.925781 3.515625 -19.9375 C 3.515625 -23.894531 4.320312 -27.445312 5.9375 -30.59375 C 7.550781 -33.75 9.789062 -36.238281 12.65625 -38.0625 C 15.53125 -39.894531 18.867188 -40.8125 22.671875 -40.8125 C 26.785156 -40.8125 30.207031 -39.921875 32.9375 -38.140625 C 35.675781 -36.367188 37.722656 -33.984375 39.078125 -30.984375 C 40.441406 -27.992188 41.125 -24.648438 41.125 -20.953125 C 41.125 -20.378906 41.109375 -19.78125 41.078125 -19.15625 C 41.054688 -18.53125 40.992188 -17.984375 40.890625 -17.515625 L 11.171875 -17.515625 C 11.429688 -15.066406 12.238281 -12.992188 13.59375 -11.296875 C 14.957031 -9.597656 16.691406 -8.316406 18.796875 -7.453125 C 20.910156 -6.597656 23.242188 -6.171875 25.796875 -6.171875 L 36.1875 -6.171875 L 36.1875 0 Z M 11.09375 -22.59375 L 33.84375 -22.59375 C 33.84375 -23.582031 33.738281 -24.632812 33.53125 -25.75 C 33.320312 -26.875 32.957031 -27.96875 32.4375 -29.03125 C 31.914062 -30.101562 31.222656 -31.066406 30.359375 -31.921875 C 29.503906 -32.785156 28.4375 -33.476562 27.15625 -34 C 25.882812 -34.519531 24.390625 -34.78125 22.671875 -34.78125 C 20.847656 -34.78125 19.242188 -34.425781 17.859375 -33.71875 C 16.484375 -33.019531 15.296875 -32.082031 14.296875 -30.90625 C 13.304688 -29.738281 12.550781 -28.425781 12.03125 -26.96875 C 11.507812 -25.507812 11.195312 -24.050781 11.09375 -22.59375 Z M 11.09375 -22.59375 "/></g></g></g><g fill="#2b2b2b" fill-opacity="1"><g transform="translate(261.829564, 354.984033)"><g/></g></g><g fill="#0096a9" fill-opacity="1"><g transform="translate(279.809639, 354.984033)"><g><path d="M 0.15625 0 L 18.765625 -49.484375 C 19.597656 -51.617188 20.742188 -53.179688 22.203125 -54.171875 C 23.660156 -55.160156 25.351562 -55.65625 27.28125 -55.65625 C 29.207031 -55.65625 30.910156 -55.171875 32.390625 -54.203125 C 33.878906 -53.242188 35.015625 -51.695312 35.796875 -49.5625 L 54.484375 0 L 46.28125 0 L 41.515625 -13.21875 L 12.890625 -13.21875 L 8.046875 0 Z M 15.25 -19.859375 L 39.25 -19.859375 L 29.46875 -46.984375 C 29.207031 -47.660156 28.921875 -48.179688 28.609375 -48.546875 C 28.296875 -48.910156 27.851562 -49.09375 27.28125 -49.09375 C 26.757812 -49.09375 26.34375 -48.910156 26.03125 -48.546875 C 25.71875 -48.179688 25.457031 -47.660156 25.25 -46.984375 Z M 15.25 -19.859375 "/></g></g></g><g fill="#0096a9" fill-opacity="1"><g transform="translate(331.712805, 354.984033)"><g><path d="M 4.0625 0 L 4.0625 -6.640625 L 14.625 -6.640625 L 14.625 -48.078125 L 4.0625 -48.078125 L 4.0625 -54.71875 L 32.59375 -54.71875 L 32.59375 -48.078125 L 22.125 -48.078125 L 22.125 -6.640625 L 32.59375 -6.640625 L 32.59375 0 Z M 4.0625 0 "/></g></g></g><g clip-path="url(#969588b927)"><path fill="#2b2b2b" d="M 351.039062 174.136719 L 311.53125 174.136719 C 311.011719 174.136719 310.496094 174.1875 309.988281 174.289062 C 309.480469 174.390625 308.984375 174.539062 308.503906 174.738281 C 308.023438 174.9375 307.566406 175.179688 307.136719 175.46875 C 306.703125 175.757812 306.304688 176.085938 305.9375 176.453125 C 305.570312 176.820312 305.242188 177.222656 304.953125 177.652344 C 304.664062 178.085938 304.421875 178.539062 304.222656 179.019531 C 304.023438 179.5 303.871094 179.996094 303.769531 180.503906 C 303.671875 181.015625 303.621094 181.527344 303.621094 182.046875 C 303.621094 182.566406 303.671875 183.082031 303.769531 183.59375 C 303.871094 184.101562 304.023438 184.597656 304.222656 185.078125 C 304.421875 185.558594 304.664062 186.011719 304.953125 186.445312 C 305.242188 186.875 305.570312 187.277344 305.9375 187.644531 C 306.304688 188.011719 306.703125 188.339844 307.136719 188.628906 C 307.566406 188.917969 308.023438 189.160156 308.503906 189.359375 C 308.984375 189.558594 309.480469 189.707031 309.988281 189.808594 C 310.496094 189.910156 311.011719 189.960938 311.53125 189.960938 L 351.039062 189.960938 C 351.558594 189.960938 352.074219 189.910156 352.582031 189.808594 C 353.09375 189.707031 353.585938 189.558594 354.066406 189.359375 C 354.546875 189.160156 355.003906 188.917969 355.4375 188.628906 C 355.867188 188.339844 356.265625 188.011719 356.636719 187.644531 C 357.003906 187.277344 357.332031 186.875 357.617188 186.445312 C 357.90625 186.011719 358.152344 185.558594 358.351562 185.078125 C 358.550781 184.597656 358.699219 184.101562 358.800781 183.59375 C 358.902344 183.082031 358.953125 182.566406 358.953125 182.046875 C 358.953125 181.527344 358.902344 181.015625 358.800781 180.503906 C 358.699219 179.996094 358.550781 179.5 358.351562 179.019531 C 358.152344 178.539062 357.90625 178.085938 357.617188 177.652344 C 357.332031 177.222656 357.003906 176.820312 356.636719 176.453125 C 356.265625 176.085938 355.867188 175.757812 355.4375 175.46875 C 355.003906 175.179688 354.546875 174.9375 354.066406 174.738281 C 353.585938 174.539062 353.09375 174.390625 352.582031 174.289062 C 352.074219 174.1875 351.558594 174.136719 351.039062 174.136719 Z M 351.039062 174.136719 " fill-opacity="1" fill-rule="nonzero"/></g><path fill="#2b2b2b" d="M 203.117188 177.03125 C 202.640625 177.554688 202.117188 178.023438 201.542969 178.441406 C 200.96875 178.859375 200.359375 179.214844 199.714844 179.507812 C 199.070312 179.800781 198.402344 180.023438 197.710938 180.183594 C 197.019531 180.339844 196.320312 180.425781 195.609375 180.441406 C 194.902344 180.457031 194.199219 180.402344 193.5 180.277344 C 192.804688 180.148438 192.125 179.953125 191.46875 179.6875 C 190.8125 179.425781 190.1875 179.097656 189.59375 178.707031 C 189.003906 178.316406 188.457031 177.867188 187.957031 177.367188 C 187.457031 176.863281 187.011719 176.316406 186.621094 175.726562 C 186.234375 175.132812 185.90625 174.507812 185.644531 173.851562 C 185.382812 173.191406 185.1875 172.515625 185.0625 171.816406 C 184.9375 171.117188 184.882812 170.414062 184.898438 169.707031 C 184.917969 169 185.007812 168.296875 185.164062 167.609375 C 185.324219 166.917969 185.550781 166.25 185.847656 165.605469 C 186.140625 164.960938 186.496094 164.351562 186.917969 163.78125 C 187.335938 163.207031 187.804688 162.683594 188.332031 162.207031 L 249.566406 100.96875 C 247.890625 99.609375 246.175781 98.300781 244.417969 97.046875 C 242.660156 95.792969 240.863281 94.59375 239.03125 93.453125 C 237.199219 92.316406 235.332031 91.234375 233.429688 90.210938 C 231.527344 89.191406 229.59375 88.230469 227.632812 87.328125 C 225.667969 86.429688 223.679688 85.59375 221.664062 84.820312 C 219.648438 84.046875 217.609375 83.339844 215.550781 82.695312 C 213.488281 82.050781 211.410156 81.472656 209.3125 80.957031 C 207.214844 80.445312 205.105469 80 202.976562 79.621094 C 200.851562 79.242188 198.71875 78.929688 196.570312 78.6875 C 194.425781 78.441406 192.277344 78.265625 190.121094 78.160156 C 187.964844 78.050781 185.804688 78.011719 183.648438 78.042969 C 181.488281 78.070312 179.332031 78.167969 177.179688 78.335938 C 175.027344 78.5 172.882812 78.734375 170.742188 79.035156 C 168.605469 79.335938 166.480469 79.707031 164.367188 80.140625 C 162.25 80.578125 160.152344 81.082031 158.070312 81.652344 C 155.988281 82.21875 153.925781 82.855469 151.882812 83.554688 C 149.839844 84.253906 147.820312 85.019531 145.828125 85.84375 C 143.832031 86.671875 141.867188 87.5625 139.929688 88.515625 C 137.992188 89.46875 136.085938 90.480469 134.210938 91.550781 C 132.339844 92.625 130.5 93.757812 128.699219 94.945312 C 126.898438 96.136719 125.132812 97.378906 123.410156 98.679688 C 121.6875 99.980469 120.007812 101.335938 118.371094 102.742188 C 116.734375 104.148438 115.140625 105.609375 113.597656 107.117188 C 112.050781 108.625 110.554688 110.179688 109.109375 111.78125 C 107.664062 113.386719 106.269531 115.03125 104.925781 116.722656 C 103.585938 118.414062 102.296875 120.144531 101.066406 121.917969 C 99.832031 123.691406 98.65625 125.5 97.539062 127.347656 C 96.421875 129.195312 95.363281 131.078125 94.363281 132.992188 C 93.367188 134.90625 92.429688 136.847656 91.550781 138.820312 C 90.675781 140.796875 89.863281 142.792969 89.117188 144.820312 C 88.367188 146.84375 87.683594 148.890625 87.0625 150.960938 C 86.445312 153.027344 85.890625 155.113281 85.402344 157.21875 C 84.914062 159.320312 84.496094 161.4375 84.140625 163.566406 C 83.789062 165.695312 83.503906 167.835938 83.285156 169.984375 C 83.066406 172.132812 82.917969 174.285156 82.835938 176.441406 C 82.753906 178.597656 82.742188 180.757812 82.796875 182.914062 C 82.851562 185.074219 82.976562 187.226562 83.167969 189.378906 C 83.359375 191.53125 83.621094 193.671875 83.949219 195.804688 C 84.273438 197.941406 84.667969 200.0625 85.132812 202.171875 C 85.59375 204.28125 86.121094 206.371094 86.714844 208.449219 C 87.308594 210.523438 87.96875 212.578125 88.695312 214.613281 C 89.417969 216.644531 90.207031 218.65625 91.058594 220.636719 C 91.910156 222.621094 92.824219 224.578125 93.796875 226.503906 C 94.773438 228.429688 95.808594 230.324219 96.90625 232.183594 C 98 234.042969 99.152344 235.867188 100.363281 237.65625 C 101.574219 239.441406 102.84375 241.191406 104.164062 242.898438 C 105.484375 244.605469 106.859375 246.269531 108.285156 247.886719 C 109.714844 249.507812 111.191406 251.082031 112.71875 252.609375 C 114.242188 254.136719 115.816406 255.613281 117.4375 257.039062 C 119.058594 258.464844 120.722656 259.839844 122.429688 261.160156 C 124.136719 262.484375 125.882812 263.75 127.671875 264.960938 C 129.457031 266.171875 131.28125 267.324219 133.140625 268.421875 C 135.003906 269.515625 136.894531 270.550781 138.820312 271.527344 C 140.75 272.503906 142.703125 273.417969 144.6875 274.269531 C 146.671875 275.121094 148.679688 275.90625 150.714844 276.632812 C 152.746094 277.355469 154.800781 278.015625 156.878906 278.609375 C 158.953125 279.203125 161.046875 279.734375 163.15625 280.195312 C 165.265625 280.65625 167.386719 281.050781 169.519531 281.378906 C 171.652344 281.707031 173.796875 281.964844 175.945312 282.15625 C 178.097656 282.347656 180.25 282.472656 182.410156 282.527344 C 184.566406 282.582031 186.726562 282.570312 188.882812 282.488281 C 191.042969 282.40625 193.195312 282.257812 195.34375 282.039062 C 197.488281 281.820312 199.628906 281.535156 201.757812 281.183594 C 203.890625 280.828125 206.003906 280.410156 208.109375 279.921875 C 210.210938 279.433594 212.296875 278.882812 214.367188 278.261719 C 216.433594 277.644531 218.480469 276.957031 220.507812 276.210938 C 222.53125 275.460938 224.53125 274.648438 226.503906 273.773438 C 228.476562 272.898438 230.421875 271.960938 232.335938 270.960938 C 234.25 269.960938 236.128906 268.902344 237.976562 267.785156 C 239.824219 266.667969 241.632812 265.492188 243.40625 264.261719 C 245.179688 263.027344 246.910156 261.742188 248.601562 260.398438 C 250.292969 259.054688 251.941406 257.664062 253.542969 256.214844 C 255.144531 254.769531 256.703125 253.273438 258.210938 251.726562 C 259.71875 250.183594 261.175781 248.59375 262.582031 246.953125 C 263.988281 245.316406 265.34375 243.636719 266.644531 241.914062 C 267.945312 240.191406 269.191406 238.429688 270.378906 236.625 C 271.570312 234.824219 272.699219 232.988281 273.773438 231.113281 C 274.847656 229.238281 275.859375 227.332031 276.8125 225.394531 C 277.761719 223.457031 278.652344 221.492188 279.480469 219.5 C 280.308594 217.503906 281.070312 215.484375 281.769531 213.445312 C 282.472656 211.402344 283.105469 209.339844 283.675781 207.257812 C 284.242188 205.171875 284.746094 203.074219 285.183594 200.960938 C 285.621094 198.847656 285.988281 196.71875 286.289062 194.582031 C 286.589844 192.445312 286.824219 190.296875 286.992188 188.144531 C 287.15625 185.992188 287.253906 183.835938 287.28125 181.679688 C 287.3125 179.519531 287.273438 177.363281 287.164062 175.207031 C 287.058594 173.050781 286.882812 170.898438 286.640625 168.753906 C 286.394531 166.609375 286.082031 164.472656 285.703125 162.347656 C 285.324219 160.222656 284.878906 158.109375 284.367188 156.011719 C 283.855469 153.917969 283.277344 151.835938 282.632812 149.777344 C 281.988281 147.714844 281.277344 145.675781 280.503906 143.660156 C 279.730469 141.644531 278.894531 139.65625 277.996094 137.695312 C 277.097656 135.730469 276.136719 133.800781 275.113281 131.898438 C 274.089844 129.996094 273.011719 128.128906 271.871094 126.292969 C 270.730469 124.460938 269.535156 122.664062 268.28125 120.90625 C 267.027344 119.148438 265.71875 117.433594 264.355469 115.757812 Z M 203.117188 177.03125 " fill-opacity="1" fill-rule="nonzero"/><g clip-path="url(#f0a03d7d09)"><g clip-path="url(#e39f753cfe)"><g clip-path="url(#12c78c66a8)"><path fill="#2b2b2b" d="M 96.714844 89.277344 L 68.777344 61.34375 C 68.410156 60.976562 68.011719 60.648438 67.578125 60.359375 C 67.148438 60.070312 66.691406 59.828125 66.210938 59.628906 C 65.730469 59.429688 65.234375 59.277344 64.726562 59.175781 C 64.21875 59.074219 63.703125 59.023438 63.183594 59.023438 C 62.664062 59.023438 62.148438 59.074219 61.640625 59.175781 C 61.128906 59.277344 60.636719 59.429688 60.15625 59.628906 C 59.675781 59.828125 59.21875 60.070312 58.785156 60.359375 C 58.355469 60.648438 57.957031 60.976562 57.589844 61.34375 C 57.21875 61.710938 56.894531 62.109375 56.605469 62.542969 C 56.316406 62.972656 56.070312 63.429688 55.871094 63.910156 C 55.675781 64.390625 55.523438 64.882812 55.421875 65.394531 C 55.320312 65.902344 55.269531 66.417969 55.269531 66.9375 C 55.269531 67.457031 55.320312 67.972656 55.421875 68.480469 C 55.523438 68.992188 55.675781 69.484375 55.871094 69.964844 C 56.070312 70.445312 56.316406 70.902344 56.605469 71.332031 C 56.894531 71.765625 57.21875 72.164062 57.589844 72.53125 L 85.523438 100.46875 C 85.890625 100.835938 86.292969 101.164062 86.722656 101.453125 C 87.15625 101.742188 87.613281 101.984375 88.089844 102.183594 C 88.570312 102.382812 89.066406 102.53125 89.574219 102.632812 C 90.085938 102.734375 90.601562 102.785156 91.121094 102.785156 C 91.640625 102.785156 92.152344 102.734375 92.664062 102.632812 C 93.171875 102.53125 93.667969 102.382812 94.148438 102.183594 C 94.628906 101.984375 95.082031 101.742188 95.515625 101.453125 C 95.949219 101.164062 96.347656 100.835938 96.714844 100.46875 C 97.082031 100.101562 97.410156 99.703125 97.699219 99.269531 C 97.988281 98.839844 98.230469 98.382812 98.429688 97.902344 C 98.628906 97.421875 98.777344 96.925781 98.878906 96.417969 C 98.980469 95.910156 99.03125 95.394531 99.03125 94.875 C 99.03125 94.355469 98.980469 93.839844 98.878906 93.332031 C 98.777344 92.820312 98.628906 92.324219 98.429688 91.847656 C 98.230469 91.367188 97.988281 90.910156 97.699219 90.476562 C 97.410156 90.046875 97.082031 89.648438 96.714844 89.277344 Z M 96.714844 89.277344 " fill-opacity="1" fill-rule="nonzero"/></g></g></g><path fill="#2b2b2b" d="M 193.617188 56.609375 L 193.617188 17.101562 C 193.617188 16.582031 193.566406 16.066406 193.464844 15.558594 C 193.363281 15.050781 193.214844 14.554688 193.015625 14.074219 C 192.816406 13.59375 192.570312 13.136719 192.285156 12.707031 C 191.996094 12.273438 191.667969 11.875 191.300781 11.507812 C 190.933594 11.140625 190.53125 10.8125 190.101562 10.523438 C 189.667969 10.234375 189.210938 9.992188 188.730469 9.792969 C 188.253906 9.59375 187.757812 9.441406 187.246094 9.34375 C 186.738281 9.242188 186.222656 9.191406 185.703125 9.191406 C 185.183594 9.191406 184.671875 9.242188 184.160156 9.34375 C 183.652344 9.441406 183.15625 9.59375 182.675781 9.792969 C 182.195312 9.992188 181.742188 10.234375 181.308594 10.523438 C 180.875 10.8125 180.476562 11.140625 180.109375 11.507812 C 179.742188 11.875 179.414062 12.273438 179.125 12.707031 C 178.835938 13.136719 178.59375 13.59375 178.394531 14.074219 C 178.195312 14.554688 178.046875 15.050781 177.945312 15.558594 C 177.84375 16.066406 177.792969 16.582031 177.792969 17.101562 L 177.792969 56.609375 C 177.792969 57.128906 177.84375 57.644531 177.945312 58.152344 C 178.046875 58.664062 178.195312 59.160156 178.394531 59.636719 C 178.59375 60.117188 178.835938 60.574219 179.125 61.007812 C 179.414062 61.4375 179.742188 61.839844 180.109375 62.207031 C 180.476562 62.574219 180.875 62.902344 181.308594 63.1875 C 181.742188 63.476562 182.195312 63.722656 182.675781 63.921875 C 183.15625 64.121094 183.652344 64.269531 184.160156 64.371094 C 184.671875 64.472656 185.183594 64.523438 185.703125 64.523438 C 186.222656 64.523438 186.738281 64.472656 187.246094 64.371094 C 187.757812 64.269531 188.253906 64.121094 188.730469 63.921875 C 189.210938 63.722656 189.667969 63.476562 190.101562 63.1875 C 190.53125 62.902344 190.933594 62.574219 191.300781 62.207031 C 191.667969 61.839844 191.996094 61.4375 192.285156 61.007812 C 192.570312 60.574219 192.816406 60.117188 193.015625 59.636719 C 193.214844 59.160156 193.363281 58.664062 193.464844 58.152344 C 193.566406 57.644531 193.617188 57.128906 193.617188 56.609375 Z M 193.617188 56.609375 " fill-opacity="1" fill-rule="nonzero"/><g clip-path="url(#9874cc0499)"><path fill="#2b2b2b" d="M 55.148438 174.136719 L 15.640625 174.136719 C 15.121094 174.136719 14.609375 174.1875 14.097656 174.289062 C 13.589844 174.390625 13.09375 174.539062 12.613281 174.738281 C 12.132812 174.9375 11.679688 175.179688 11.246094 175.46875 C 10.8125 175.757812 10.414062 176.085938 10.046875 176.453125 C 9.679688 176.820312 9.351562 177.222656 9.0625 177.652344 C 8.773438 178.085938 8.53125 178.539062 8.332031 179.019531 C 8.132812 179.5 7.984375 179.996094 7.882812 180.503906 C 7.78125 181.015625 7.730469 181.527344 7.730469 182.046875 C 7.730469 182.566406 7.78125 183.082031 7.882812 183.59375 C 7.984375 184.101562 8.132812 184.597656 8.332031 185.078125 C 8.53125 185.558594 8.773438 186.011719 9.0625 186.445312 C 9.351562 186.875 9.679688 187.277344 10.046875 187.644531 C 10.414062 188.011719 10.8125 188.339844 11.246094 188.628906 C 11.679688 188.917969 12.132812 189.160156 12.613281 189.359375 C 13.09375 189.558594 13.589844 189.707031 14.097656 189.808594 C 14.609375 189.910156 15.121094 189.960938 15.640625 189.960938 L 55.148438 189.960938 C 55.667969 189.960938 56.183594 189.910156 56.695312 189.808594 C 57.203125 189.707031 57.699219 189.558594 58.179688 189.359375 C 58.65625 189.160156 59.113281 188.917969 59.546875 188.628906 C 59.976562 188.339844 60.378906 188.011719 60.746094 187.644531 C 61.113281 187.277344 61.441406 186.875 61.730469 186.445312 C 62.015625 186.011719 62.261719 185.558594 62.460938 185.078125 C 62.660156 184.597656 62.808594 184.101562 62.910156 183.59375 C 63.011719 183.082031 63.0625 182.566406 63.0625 182.046875 C 63.0625 181.527344 63.011719 181.015625 62.910156 180.503906 C 62.808594 179.996094 62.660156 179.5 62.460938 179.019531 C 62.261719 178.539062 62.015625 178.085938 61.730469 177.652344 C 61.441406 177.222656 61.113281 176.820312 60.746094 176.453125 C 60.378906 176.085938 59.976562 175.757812 59.546875 175.46875 C 59.113281 175.179688 58.65625 174.9375 58.179688 174.738281 C 57.699219 174.539062 57.203125 174.390625 56.695312 174.289062 C 56.183594 174.1875 55.667969 174.136719 55.148438 174.136719 Z M 55.148438 174.136719 " fill-opacity="1" fill-rule="nonzero"/></g><g clip-path="url(#1622b0d5e9)"><path fill="#0096a9" d="M 350.707031 60.386719 C 311.980469 67.515625 306.203125 73.292969 299.074219 112.015625 C 291.945312 73.292969 286.167969 67.515625 247.445312 60.386719 C 286.167969 53.257812 291.945312 47.476562 299.074219 8.753906 C 306.203125 47.476562 311.980469 53.257812 350.707031 60.386719 Z M 350.707031 60.386719 " fill-opacity="1" fill-rule="nonzero"/></g></svg>